<svg width="89" height="121" viewBox="0 0 89 121" fill="none" xmlns="http://www.w3.org/2000/svg">
<path d="M88.1635 0.171387H0.814453V120.829H88.1635V0.171387Z" fill="white"/>
<path d="M78.715 46.3613C78.715 46.3393 78.715 46.3393 78.715 46.3173L45.5241 46.3393V54.8556H70.1034C69.2004 60.247 66.6235 65.0662 62.9234 68.7852C58.2322 73.4504 51.8231 76.3331 44.6872 76.3331C37.5512 76.3331 31.1421 73.4504 26.4509 68.7852C21.7817 64.0979 18.8965 57.6943 18.8965 50.5644C18.8965 43.4346 21.7817 37.0309 26.4509 32.3437C31.1201 27.6785 37.5512 24.7958 44.6872 24.7958C51.8231 24.7958 58.2322 27.6785 62.9234 32.3437C64.5312 33.9721 65.9408 35.7986 67.0861 37.7791H76.5346C74.7946 33.444 72.1957 29.549 68.9581 26.3141C62.7693 20.1085 54.1577 16.2795 44.6872 16.2795C35.2167 16.2795 26.6271 20.1305 20.4162 26.3141C14.2053 32.4978 10.373 41.102 10.373 50.5644C10.373 60.0269 14.2273 68.6091 20.4162 74.8147C26.6051 81.0203 35.2167 84.8493 44.6872 84.8493C54.1577 84.8493 62.7472 80.9983 68.9581 74.8147C69.4867 74.2866 69.9933 73.7365 70.4778 73.1863V102.96H45.5021V111.014H78.9793V46.3613H78.715Z" fill="#46605B"/>
</svg>
