<?xml version="1.0" standalone="no"?>
<!DOCTYPE svg PUBLIC "-//W3C//DTD SVG 20010904//EN"
 "http://www.w3.org/TR/2001/REC-SVG-20010904/DTD/svg10.dtd">
<svg version="1.0" xmlns="http://www.w3.org/2000/svg"
 width="180.000000pt" height="180.000000pt" viewBox="0 0 180.000000 180.000000"
 preserveAspectRatio="xMidYMid meet">
<metadata>
Created by potrace 1.14, written by Peter Selinger 2001-2017
</metadata>
<g transform="translate(0.000000,180.000000) scale(0.100000,-0.100000)"
fill="#000000" stroke="none">
<path d="M803 1550 c-208 -42 -373 -219 -405 -435 -43 -299 198 -575 502 -575
131 0 243 41 335 122 24 21 46 38 49 38 3 0 6 -97 6 -215 l0 -215 -185 0 -185
0 0 -60 0 -60 245 0 245 0 0 480 0 480 -245 0 -245 0 0 -65 0 -65 181 0 181 0
-7 -27 c-23 -95 -110 -203 -199 -246 -197 -97 -425 -17 -519 181 -29 61 -32
76 -32 162 0 82 4 103 27 152 102 220 374 296 568 161 30 -21 68 -57 85 -80
l30 -42 68 0 c66 -1 68 0 61 22 -12 39 -75 126 -120 165 -118 104 -289 152
-441 122z"/>
</g>
</svg>
